<mxfile host="65bd71144e">
    <diagram id="3zYwDCE67MGWpktdA1Ih" name="Page-1">
        <mxGraphModel dx="913" dy="719" grid="1" gridSize="10" guides="1" tooltips="1" connect="1" arrows="1" fold="1" page="1" pageScale="1" pageWidth="827" pageHeight="1169" math="0" shadow="0">
            <root>
                <mxCell id="0"/>
                <mxCell id="1" parent="0"/>
                <mxCell id="2" value="" style="shape=ext;double=1;rounded=0;whiteSpace=wrap;html=1;fillColor=#2A2839;" vertex="1" parent="1">
                    <mxGeometry x="435" y="40" width="360" height="480" as="geometry"/>
                </mxCell>
                <mxCell id="3" value="" style="shape=ext;double=1;rounded=0;whiteSpace=wrap;html=1;fillColor=#411C1F;" vertex="1" parent="1">
                    <mxGeometry x="445" y="50" width="40" height="40" as="geometry"/>
                </mxCell>
                <mxCell id="4" value="" style="endArrow=none;html=1;jumpSize=12;" edge="1" parent="1">
                    <mxGeometry width="50" height="50" relative="1" as="geometry">
                        <mxPoint x="455.0000000000002" y="60" as="sourcePoint"/>
                        <mxPoint x="475.0000000000002" y="60" as="targetPoint"/>
                    </mxGeometry>
                </mxCell>
                <mxCell id="5" value="" style="endArrow=none;html=1;jumpSize=12;" edge="1" parent="1">
                    <mxGeometry width="50" height="50" relative="1" as="geometry">
                        <mxPoint x="455.0000000000002" y="69.94000000000005" as="sourcePoint"/>
                        <mxPoint x="475.0000000000002" y="69.94000000000005" as="targetPoint"/>
                    </mxGeometry>
                </mxCell>
                <mxCell id="6" value="" style="endArrow=none;html=1;jumpSize=12;" edge="1" parent="1">
                    <mxGeometry width="50" height="50" relative="1" as="geometry">
                        <mxPoint x="455.0000000000002" y="79.94000000000005" as="sourcePoint"/>
                        <mxPoint x="475.0000000000002" y="79.94000000000005" as="targetPoint"/>
                    </mxGeometry>
                </mxCell>
                <mxCell id="7" value="" style="shape=ext;double=1;rounded=0;whiteSpace=wrap;html=1;fillColor=#411C1F;" vertex="1" parent="1">
                    <mxGeometry x="445" y="470" width="340" height="40" as="geometry"/>
                </mxCell>
                <mxCell id="8" value="" style="verticalLabelPosition=bottom;html=1;verticalAlign=top;strokeWidth=2;shape=mxgraph.lean_mapping.sequenced_pull_ball;fillColor=#411C1F;fontColor=#FFFFFF;" vertex="1" parent="1">
                    <mxGeometry x="705" y="350" width="60" height="60" as="geometry"/>
                </mxCell>
                <mxCell id="9" value="" style="verticalLabelPosition=bottom;html=1;verticalAlign=top;strokeWidth=2;shape=mxgraph.lean_mapping.sequenced_pull_ball;fillColor=#411C1F;fontColor=#FFFFFF;" vertex="1" parent="1">
                    <mxGeometry x="625" y="350" width="60" height="60" as="geometry"/>
                </mxCell>
                <mxCell id="10" value="" style="verticalLabelPosition=bottom;html=1;verticalAlign=top;strokeWidth=2;shape=mxgraph.lean_mapping.sequenced_pull_ball;fillColor=#411C1F;fontColor=#FFFFFF;" vertex="1" parent="1">
                    <mxGeometry x="545" y="350" width="60" height="60" as="geometry"/>
                </mxCell>
                <mxCell id="11" value="" style="verticalLabelPosition=bottom;html=1;verticalAlign=top;strokeWidth=2;shape=mxgraph.lean_mapping.sequenced_pull_ball;fillColor=#411C1F;fontColor=#FFFFFF;" vertex="1" parent="1">
                    <mxGeometry x="465" y="350" width="60" height="60" as="geometry"/>
                </mxCell>
                <mxCell id="12" value="" style="ellipse;shape=doubleEllipse;whiteSpace=wrap;html=1;aspect=fixed;fillColor=#411C1F;" vertex="1" parent="1">
                    <mxGeometry x="540" y="100" width="150" height="150" as="geometry"/>
                </mxCell>
                <mxCell id="14" value="&lt;font&gt;RAM&lt;/font&gt;" style="text;html=1;strokeColor=none;fillColor=none;align=center;verticalAlign=middle;whiteSpace=wrap;rounded=0;fontFamily=Helvetica;fontSize=12;fontColor=#FFFFFF;" vertex="1" parent="1">
                    <mxGeometry x="465" y="365" width="60" height="30" as="geometry"/>
                </mxCell>
                <mxCell id="15" value="&lt;font&gt;CPU&lt;/font&gt;" style="text;html=1;strokeColor=none;fillColor=none;align=center;verticalAlign=middle;whiteSpace=wrap;rounded=0;fontFamily=Helvetica;fontSize=12;fontColor=#FFFFFF;" vertex="1" parent="1">
                    <mxGeometry x="545" y="365" width="60" height="30" as="geometry"/>
                </mxCell>
                <mxCell id="16" value="&lt;font&gt;PKG&lt;/font&gt;" style="text;html=1;strokeColor=none;fillColor=none;align=center;verticalAlign=middle;whiteSpace=wrap;rounded=0;fontFamily=Helvetica;fontSize=12;fontColor=#FFFFFF;" vertex="1" parent="1">
                    <mxGeometry x="705" y="365" width="60" height="30" as="geometry"/>
                </mxCell>
                <mxCell id="17" value="&lt;font&gt;DISK&lt;/font&gt;" style="text;html=1;strokeColor=none;fillColor=none;align=center;verticalAlign=middle;whiteSpace=wrap;rounded=0;fontFamily=Helvetica;fontSize=12;fontColor=#FFFFFF;" vertex="1" parent="1">
                    <mxGeometry x="625" y="365" width="60" height="30" as="geometry"/>
                </mxCell>
                <mxCell id="18" value="&lt;font&gt;93%&lt;/font&gt;" style="text;html=1;strokeColor=none;fillColor=none;align=center;verticalAlign=middle;whiteSpace=wrap;rounded=0;fontFamily=Helvetica;fontSize=12;fontColor=#FFFFFF;" vertex="1" parent="1">
                    <mxGeometry x="465" y="410" width="60" height="30" as="geometry"/>
                </mxCell>
                <mxCell id="19" value="&lt;font&gt;14%&lt;/font&gt;" style="text;html=1;strokeColor=none;fillColor=none;align=center;verticalAlign=middle;whiteSpace=wrap;rounded=0;fontFamily=Helvetica;fontSize=12;fontColor=#FFFFFF;" vertex="1" parent="1">
                    <mxGeometry x="545" y="410" width="60" height="30" as="geometry"/>
                </mxCell>
                <mxCell id="20" value="&lt;font&gt;93%&lt;/font&gt;" style="text;html=1;strokeColor=none;fillColor=none;align=center;verticalAlign=middle;whiteSpace=wrap;rounded=0;fontFamily=Helvetica;fontSize=12;fontColor=#FFFFFF;" vertex="1" parent="1">
                    <mxGeometry x="625" y="410" width="60" height="30" as="geometry"/>
                </mxCell>
                <mxCell id="21" value="&lt;font&gt;1250&lt;/font&gt;" style="text;html=1;strokeColor=none;fillColor=none;align=center;verticalAlign=middle;whiteSpace=wrap;rounded=0;fontFamily=Helvetica;fontSize=12;fontColor=#FFFFFF;" vertex="1" parent="1">
                    <mxGeometry x="705" y="410" width="60" height="30" as="geometry"/>
                </mxCell>
                <mxCell id="22" value="" style="rounded=0;whiteSpace=wrap;html=1;strokeColor=#FF0000;fontFamily=Helvetica;fontSize=8;fontColor=#FFFFFF;fillColor=none;strokeWidth=8;" vertex="1" parent="1">
                    <mxGeometry x="420" y="330" width="395" height="120" as="geometry"/>
                </mxCell>
                <mxCell id="23" value="" style="rounded=0;whiteSpace=wrap;html=1;strokeColor=#FF0000;fontFamily=Helvetica;fontSize=8;fontColor=#2A2839;fillColor=none;strokeWidth=8;" vertex="1" parent="1">
                    <mxGeometry x="420" y="460" width="395" height="70" as="geometry"/>
                </mxCell>
                <mxCell id="24" value="" style="rounded=0;whiteSpace=wrap;html=1;strokeColor=#FF0000;fontFamily=Helvetica;fontSize=8;fontColor=#2A2839;fillColor=none;strokeWidth=8;" vertex="1" parent="1">
                    <mxGeometry x="414" y="30" width="91" height="80" as="geometry"/>
                </mxCell>
                <mxCell id="25" value="" style="shape=flexArrow;endArrow=classic;html=1;fontFamily=Helvetica;fontSize=8;fontColor=#2A2839;jumpSize=12;exitX=0;exitY=0.5;exitDx=0;exitDy=0;fillColor=#FF0000;strokeColor=#6F0000;" edge="1" parent="1" source="22">
                    <mxGeometry width="50" height="50" relative="1" as="geometry">
                        <mxPoint x="240" y="390" as="sourcePoint"/>
                        <mxPoint x="280" y="390" as="targetPoint"/>
                    </mxGeometry>
                </mxCell>
                <mxCell id="26" value="" style="shape=flexArrow;endArrow=classic;html=1;fontFamily=Helvetica;fontSize=8;fontColor=#2A2839;jumpSize=12;exitX=0;exitY=0.5;exitDx=0;exitDy=0;fillColor=#FF0000;strokeColor=#6F0000;" edge="1" parent="1" source="23">
                    <mxGeometry width="50" height="50" relative="1" as="geometry">
                        <mxPoint x="410" y="494.5" as="sourcePoint"/>
                        <mxPoint x="280" y="495" as="targetPoint"/>
                    </mxGeometry>
                </mxCell>
                <mxCell id="27" value="" style="shape=flexArrow;endArrow=classic;html=1;fontFamily=Helvetica;fontSize=8;fontColor=#2A2839;jumpSize=12;exitX=0;exitY=0.5;exitDx=0;exitDy=0;fillColor=#FF0000;strokeColor=#6F0000;" edge="1" parent="1" source="24">
                    <mxGeometry width="50" height="50" relative="1" as="geometry">
                        <mxPoint x="410" y="80" as="sourcePoint"/>
                        <mxPoint x="280" y="70" as="targetPoint"/>
                    </mxGeometry>
                </mxCell>
                <mxCell id="28" value="&lt;b style=&quot;color: rgb(255, 255, 255); font-size: 16px;&quot;&gt;Shell&lt;/b&gt;" style="rounded=1;whiteSpace=wrap;html=1;strokeColor=default;fontFamily=Helvetica;fontSize=8;fontColor=#2A2839;fillColor=#2A2839;arcSize=0;" vertex="1" parent="1">
                    <mxGeometry x="120" y="350" width="160" height="80" as="geometry"/>
                </mxCell>
                <mxCell id="29" value="&lt;font color=&quot;#ffffff&quot;&gt;&lt;span style=&quot;font-size: 16px;&quot;&gt;&lt;b&gt;API&lt;br&gt;(LLM)&lt;br&gt;&lt;/b&gt;&lt;/span&gt;&lt;/font&gt;" style="rounded=1;whiteSpace=wrap;html=1;strokeColor=default;fontFamily=Helvetica;fontSize=8;fontColor=#2A2839;fillColor=#2A2839;arcSize=0;" vertex="1" parent="1">
                    <mxGeometry x="120" y="450" width="160" height="80" as="geometry"/>
                </mxCell>
                <mxCell id="30" value="&lt;font style=&quot;&quot; color=&quot;#ffffff&quot;&gt;&lt;b style=&quot;font-size: 16px;&quot;&gt;conf.json&lt;/b&gt;&lt;br&gt;&lt;i style=&quot;&quot;&gt;&lt;font style=&quot;font-size: 12px;&quot;&gt;&amp;lt;&amp;lt;config file&amp;gt;&amp;gt;&lt;/font&gt;&lt;/i&gt;&lt;br&gt;&lt;/font&gt;" style="rounded=1;whiteSpace=wrap;html=1;strokeColor=default;fontFamily=Helvetica;fontSize=8;fontColor=#2A2839;fillColor=#2A2839;arcSize=0;" vertex="1" parent="1">
                    <mxGeometry x="120" y="30" width="160" height="80" as="geometry"/>
                </mxCell>
            </root>
        </mxGraphModel>
    </diagram>
</mxfile>